<svg width="43" height="43" viewBox="0 0 43 43" fill="none" xmlns="http://www.w3.org/2000/svg">
<path d="M8.82505 21.0215L23.105 15.138C24.5146 14.5251 29.295 12.5639 29.295 12.5639C29.295 12.5639 31.5013 11.7059 31.3174 13.7897C31.2562 14.6477 30.7659 17.6507 30.2756 20.899L28.7434 30.5211C28.7434 30.5211 28.6208 31.9307 27.5789 32.1758C26.537 32.421 24.821 31.3178 24.5146 31.0726C24.2694 30.8888 19.918 28.1309 18.3246 26.7825C17.8956 26.4148 17.4053 25.6794 18.3859 24.8213C20.5922 22.7989 23.2275 20.2861 24.821 18.6926C25.5564 17.9572 26.2919 16.2411 23.2275 18.3249L14.586 24.1472C14.586 24.1472 13.6055 24.7601 11.7668 24.2085C9.92822 23.6569 7.78317 22.9214 7.78317 22.9214C7.78317 22.9214 6.31228 22.0021 8.82505 21.0215Z" fill="#292929"/>
</svg>
