<svg width="35" height="35" viewBox="0 0 35 35" fill="none" xmlns="http://www.w3.org/2000/svg">
<path d="M17.1799 28.8064C15.2218 28.805 13.2987 28.2873 11.6045 27.3057L7.24761 28.8064L8.1425 24.1936C6.74556 22.2889 5.99479 19.9872 6.00003 17.6251C6.00003 15.4136 6.65583 13.2518 7.8845 11.413C9.11317 9.57427 10.8595 8.14114 12.9027 7.2949C14.9459 6.44866 17.1941 6.22732 19.3631 6.65886C21.5321 7.0904 23.5244 8.15545 25.0881 9.71931C26.6517 11.2832 27.7165 13.2756 28.1478 15.4446C28.5791 17.6137 28.3575 19.8619 27.511 21.905C26.6645 23.948 25.2311 25.6942 23.3922 26.9227C21.5533 28.1511 19.3914 28.8066 17.1799 28.8064ZM11.805 25.4772L12.1411 25.6874C14.1616 26.9511 16.5823 27.4116 18.9256 26.9782C21.2689 26.5448 23.3648 25.2489 24.7996 23.3462C26.2344 21.4434 26.904 19.0721 26.6763 16.6999C26.4487 14.3277 25.3402 12.127 23.5697 10.5319C21.7991 8.93681 19.4951 8.06321 17.1121 8.08343C14.7291 8.10364 12.4402 9.01622 10.697 10.6411C8.95377 12.266 7.88282 14.4852 7.69542 16.8609C7.50803 19.2366 8.21779 21.5963 9.68469 23.4744L9.91844 23.7732L9.42881 26.2932L11.805 25.4772Z" fill="#292929"/>
<path d="M11.3396 13.3305C11.3396 13.3305 11.9966 12.1839 12.5305 12.1189C13.0644 12.0539 13.7545 12.0525 13.9399 12.4025C14.1252 12.7524 14.9551 14.7828 14.9551 14.7828C14.9954 14.8964 15.0094 15.0176 14.9962 15.1373C14.9831 15.2571 14.943 15.3723 14.879 15.4744C14.6648 15.7693 14.4275 16.0468 14.1695 16.3043C14.0925 16.4086 14.051 16.5349 14.051 16.6646C14.051 16.7943 14.0925 16.9205 14.1695 17.0249C14.6313 17.7186 15.1579 18.367 15.7421 18.9613C16.6176 19.8368 18.2981 20.4606 18.2981 20.4606C18.3684 20.4689 18.4396 20.4625 18.5072 20.4418C18.5748 20.4211 18.6374 20.3865 18.6909 20.3403C18.8431 20.1881 19.6743 19.1508 19.6743 19.1508C19.7597 19.0511 19.8763 18.9833 20.0051 18.9582C20.1338 18.9331 20.2673 18.9522 20.3839 19.0124C20.8251 19.2144 22.7352 20.1701 22.7352 20.1701C22.7352 20.1701 22.9593 20.2517 22.9593 20.5851C22.9593 20.9184 22.821 21.7524 22.5443 22.0318C22.2677 22.3112 21.4378 23.1757 20.2138 23.1757C18.9897 23.1757 16.0519 22.1743 14.4904 20.6127C12.9288 19.0512 11.5554 17.4592 11.2207 16.018C10.8859 14.5767 10.9371 13.9239 11.3396 13.3305Z" fill="#292929"/>
</svg>
